{
  "asset": {
    "version": "2.0",
    "generator": "THREE.GLTFExporter r170"
  },
  "scenes": [
    {
      "name": "Scene",
      "nodes": [
        7,
        8
      ]
    }
  ],
  "scene": 0,
  "nodes": [
    {
      "name": "Volume",
      "extras": {
        "name": "Volume"
      }
    },
    {
      "name": "Plane",
      "mesh": 0
    },
    {
      "name": "Plane_1",
      "mesh": 1
    },
    {
      "name": "Arches",
      "extras": {
        "name": "Arches"
      },
      "children": [
        1,
        2
      ]
    },
    {
      "name": "Walls",
      "extras": {
        "name": "Walls"
      },
      "mesh": 2
    },
    {
      "name": "Floor",
      "extras": {
        "name": "Floor"
      },
      "mesh": 3
    },
    {
      "name": "Arches001",
      "extras": {
        "name": "Arches.001"
      },
      "mesh": 4
    },
    {
      "name": "tunneltest.glb",
      "children": [
        0,
        3,
        4,
        5,
        6
      ]
    },
    {
      "matrix": [
        0.9697389059977863,
        0,
        -0.2441443306616325,
        0,
        0,
        1,
        0,
        0,
        0.2441443306616325,
        0,
        0.9697389059977863,
        0,
        0.3433086890504049,
        0.5967253427169108,
        0,
        1
      ],
      "name": "PerspectiveCamera",
      "camera": 0
    }
  ],
  "bufferViews": [
    {
      "buffer": 0,
      "byteOffset": 0,
      "byteLength": 24192,
      "target": 34962,
      "byteStride": 12
    },
    {
      "buffer": 0,
      "byteOffset": 24192,
      "byteLength": 24192,
      "target": 34962,
      "byteStride": 12
    },
    {
      "buffer": 0,
      "byteOffset": 48384,
      "byteLength": 16128,
      "target": 34962,
      "byteStride": 8
    },
    {
      "buffer": 0,
      "byteOffset": 64512,
      "byteLength": 7560,
      "target": 34963
    },
    {
      "buffer": 0,
      "byteOffset": 72072,
      "byteLength": 4032,
      "target": 34962,
      "byteStride": 12
    },
    {
      "buffer": 0,
      "byteOffset": 76104,
      "byteLength": 4032,
      "target": 34962,
      "byteStride": 12
    },
    {
      "buffer": 0,
      "byteOffset": 80136,
      "byteLength": 2688,
      "target": 34962,
      "byteStride": 8
    },
    {
      "buffer": 0,
      "byteOffset": 82824,
      "byteLength": 1008,
      "target": 34963
    },
    {
      "buffer": 0,
      "byteOffset": 83832,
      "byteLength": 16212,
      "target": 34962,
      "byteStride": 12
    },
    {
      "buffer": 0,
      "byteOffset": 100044,
      "byteLength": 16212,
      "target": 34962,
      "byteStride": 12
    },
    {
      "buffer": 0,
      "byteOffset": 116256,
      "byteLength": 10808,
      "target": 34962,
      "byteStride": 8
    },
    {
      "buffer": 0,
      "byteOffset": 127064,
      "byteLength": 10992,
      "target": 34963
    },
    {
      "buffer": 0,
      "byteOffset": 138056,
      "byteLength": 48,
      "target": 34962,
      "byteStride": 12
    },
    {
      "buffer": 0,
      "byteOffset": 138104,
      "byteLength": 48,
      "target": 34962,
      "byteStride": 12
    },
    {
      "buffer": 0,
      "byteOffset": 138152,
      "byteLength": 32,
      "target": 34962,
      "byteStride": 8
    },
    {
      "buffer": 0,
      "byteOffset": 138184,
      "byteLength": 12,
      "target": 34963
    },
    {
      "buffer": 0,
      "byteOffset": 138196,
      "byteLength": 576,
      "target": 34962,
      "byteStride": 12
    },
    {
      "buffer": 0,
      "byteOffset": 138772,
      "byteLength": 576,
      "target": 34962,
      "byteStride": 12
    },
    {
      "buffer": 0,
      "byteOffset": 139348,
      "byteLength": 384,
      "target": 34962,
      "byteStride": 8
    },
    {
      "buffer": 0,
      "byteOffset": 139732,
      "byteLength": 252,
      "target": 34963
    }
  ],
  "buffers": [
    {
      "byteLength": 139984,
      "uri": "data:application/octet-stream;base64,"
    }
  ],
  "accessors": [
    {
      "bufferView": 0,
      "componentType": 5126,
      "count": 2016,
      "max": [
        1.2286932468414307,
        2.234116315841675,
        0.14928318560123444
      ],
      "min": [
        -1.2286932468414307,
        -1.4863327235659085e-10,
        -19.55609893798828
      ],
      "type": "VEC3"
    },
    {
      "bufferView": 1,
      "componentType": 5126,
      "count": 2016,
      "max": [
        0.8946870565414429,
        0.8039662837982178,
        1
      ],
      "min": [
        -0.8946870565414429,
        -1,
        -1
      ],
      "type": "VEC3"
    },
    {
      "bufferView": 2,
      "componentType": 5126,
      "count": 2016,
      "max": [
        1.0000001192092896,
        1
      ],
      "min": [
        0,
        0
      ],
      "type": "VEC2"
    },
    {
      "bufferView": 3,
      "componentType": 5123,
      "count": 3780,
      "max": [
        2015
      ],
      "min": [
        0
      ],
      "type": "SCALAR"
    },
    {
      "bufferView": 4,
      "componentType": 5126,
      "count": 336,
      "max": [
        1.1199601888656616,
        1.7235733270645142,
        0.14928318560123444
      ],
      "min": [
        -1.1199601888656616,
        0.08970493078231812,
        -19.30255126953125
      ],
      "type": "VEC3"
    },
    {
      "bufferView": 5,
      "componentType": 5126,
      "count": 336,
      "max": [
        0.8946870565414429,
        0.4514087438583374,
        1
      ],
      "min": [
        -0.8946870565414429,
        -0.4466935694217682,
        0
      ],
      "type": "VEC3"
    },
    {
      "bufferView": 6,
      "componentType": 5126,
      "count": 336,
      "max": [
        0.7626368999481201,
        1
      ],
      "min": [
        0,
        0.03936666250228882
      ],
      "type": "VEC2"
    },
    {
      "bufferView": 7,
      "componentType": 5123,
      "count": 504,
      "max": [
        335
      ],
      "min": [
        0
      ],
      "type": "SCALAR"
    },
    {
      "bufferView": 8,
      "componentType": 5126,
      "count": 1351,
      "max": [
        1.2286932468414307,
        2.3001649379730225,
        0.2732739746570587
      ],
      "min": [
        -1.2286932468414307,
        -0.1524621695280075,
        -19.726726531982422
      ],
      "type": "VEC3"
    },
    {
      "bufferView": 9,
      "componentType": 5126,
      "count": 1351,
      "max": [
        0.9889856576919556,
        1,
        1
      ],
      "min": [
        -0.9930024147033691,
        -1,
        -0.9994974732398987
      ],
      "type": "VEC3"
    },
    {
      "bufferView": 10,
      "componentType": 5126,
      "count": 1351,
      "max": [
        0,
        1
      ],
      "min": [
        0,
        1
      ],
      "type": "VEC2"
    },
    {
      "bufferView": 11,
      "componentType": 5123,
      "count": 5496,
      "max": [
        1350
      ],
      "min": [
        0
      ],
      "type": "SCALAR"
    },
    {
      "bufferView": 12,
      "componentType": 5126,
      "count": 4,
      "max": [
        2,
        0,
        1
      ],
      "min": [
        -2,
        0,
        -20
      ],
      "type": "VEC3"
    },
    {
      "bufferView": 13,
      "componentType": 5126,
      "count": 4,
      "max": [
        0,
        1,
        0
      ],
      "min": [
        0,
        1,
        0
      ],
      "type": "VEC3"
    },
    {
      "bufferView": 14,
      "componentType": 5126,
      "count": 4,
      "max": [
        1,
        1
      ],
      "min": [
        0,
        0
      ],
      "type": "VEC2"
    },
    {
      "bufferView": 15,
      "componentType": 5123,
      "count": 6,
      "max": [
        3
      ],
      "min": [
        0
      ],
      "type": "SCALAR"
    },
    {
      "bufferView": 16,
      "componentType": 5126,
      "count": 48,
      "max": [
        1.2286932468414307,
        2.234116315841675,
        0.10426455736160278
      ],
      "min": [
        -1.2286932468414307,
        -1.4863327235659085e-10,
        -0.10426455736160278
      ],
      "type": "VEC3"
    },
    {
      "bufferView": 17,
      "componentType": 5126,
      "count": 48,
      "max": [
        0.8118316531181335,
        0.7439702153205872,
        1
      ],
      "min": [
        -0.8118316531181335,
        0,
        -1
      ],
      "type": "VEC3"
    },
    {
      "bufferView": 18,
      "componentType": 5126,
      "count": 48,
      "max": [
        1.0000001192092896,
        0.9692797064781189
      ],
      "min": [
        1,
        0
      ],
      "type": "VEC2"
    },
    {
      "bufferView": 19,
      "componentType": 5123,
      "count": 126,
      "max": [
        47
      ],
      "min": [
        0
      ],
      "type": "SCALAR"
    }
  ],
  "materials": [
    {
      "pbrMetallicRoughness": {
        "baseColorFactor": [
          0.16826940017946088,
          0.16826940017946088,
          0.16826940017946088,
          1
        ],
        "metallicFactor": 0,
        "roughnessFactor": 0.76
      },
      "doubleSided": true,
      "extensions": {
        "KHR_materials_ior": {
          "ior": 1
        }
      }
    },
    {
      "pbrMetallicRoughness": {
        "baseColorFactor": [
          0.982250550332711,
          0.8631572134510892,
          1,
          1
        ],
        "metallicFactor": 0,
        "roughnessFactor": 1
      },
      "emissiveFactor": [
        1,
        0.2704977910022518,
        0.9559733532482866
      ],
      "doubleSided": true,
      "extensions": {
        "KHR_materials_ior": {
          "ior": 1
        },
        "KHR_materials_emissive_strength": {
          "emissiveStrength": 4
        }
      }
    },
    {
      "pbrMetallicRoughness": {
        "baseColorFactor": [
          0.033104766565152086,
          0.031896033067374104,
          0.04373502925049377,
          1
        ],
        "metallicFactor": 0,
        "roughnessFactor": 0.44
      },
      "doubleSided": true,
      "extensions": {
        "KHR_materials_ior": {
          "ior": 1.4999999999999998
        }
      }
    },
    {
      "pbrMetallicRoughness": {
        "metallicFactor": 0.38,
        "roughnessFactor": 0
      },
      "extensions": {
        "KHR_materials_ior": {
          "ior": 1
        }
      }
    },
    {
      "pbrMetallicRoughness": {
        "metallicFactor": 1,
        "roughnessFactor": 1
      }
    }
  ],
  "meshes": [
    {
      "primitives": [
        {
          "mode": 4,
          "attributes": {
            "POSITION": 0,
            "NORMAL": 1,
            "TEXCOORD_0": 2
          },
          "indices": 3,
          "material": 0
        }
      ]
    },
    {
      "primitives": [
        {
          "mode": 4,
          "attributes": {
            "POSITION": 4,
            "NORMAL": 5,
            "TEXCOORD_0": 6
          },
          "indices": 7,
          "material": 1
        }
      ]
    },
    {
      "primitives": [
        {
          "mode": 4,
          "attributes": {
            "POSITION": 8,
            "NORMAL": 9,
            "TEXCOORD_0": 10
          },
          "indices": 11,
          "material": 2
        }
      ]
    },
    {
      "primitives": [
        {
          "mode": 4,
          "attributes": {
            "POSITION": 12,
            "NORMAL": 13,
            "TEXCOORD_0": 14
          },
          "indices": 15,
          "material": 3
        }
      ]
    },
    {
      "primitives": [
        {
          "mode": 4,
          "attributes": {
            "POSITION": 16,
            "NORMAL": 17,
            "TEXCOORD_0": 18
          },
          "indices": 19,
          "material": 4
        }
      ]
    }
  ],
  "cameras": [
    {
      "type": "perspective",
      "perspective": {
        "aspectRatio": 1.7064732142857142,
        "yfov": 0.8726646259971648,
        "zfar": 2000,
        "znear": 0.1
      },
      "name": "PerspectiveCamera"
    }
  ],
  "extensionsUsed": [
    "KHR_materials_ior",
    "KHR_materials_emissive_strength"
  ]
}